<?xml version="1.0" encoding="iso-8859-1"?>
<!-- Generator: Adobe Illustrator 18.0.0, SVG Export Plug-In . SVG Version: 6.00 Build 0)  -->
<!DOCTYPE svg PUBLIC "-//W3C//DTD SVG 1.1//EN" "http://www.w3.org/Graphics/SVG/1.1/DTD/svg11.dtd">
<svg version="1.1" id="Capa_1" xmlns="http://www.w3.org/2000/svg" xmlns:xlink="http://www.w3.org/1999/xlink" x="0px" y="0px"
	 viewBox="0 0 57.322 57.322" style="enable-background:new 0 0 57.322 57.322;" xml:space="preserve">
<g>
	<path d="M56.503,19.414c-1.126-2.837-3.371-4.962-6.704-6.328c-0.182-0.067-3.23-1.165-6.559-1.024
		C40.845,9.668,24.816-4.634,1.362,14.83c-0.647,0.537-0.88,1.397-0.594,2.19c0.286,0.794,1.015,1.307,1.855,1.307h3.842
		c-2.925,2.5-7.066,7.613-6.393,16.198c0.03,0.39,0.285,0.725,0.651,0.86c0.363,0.133,0.777,0.045,1.053-0.231l5.96-5.96
		c0.242,2.269,0.804,6.003,2.081,9.848c2.729,8.219,7.439,12.895,13.622,13.521c0.033,0.003,0.066,0.005,0.1,0.005
		c0.383,0,0.734-0.224,0.901-0.576c0.181-0.383,0.098-0.842-0.203-1.141c-0.031-0.031-2.937-3.032-2.975-11.685
		c2.223,2.399,6.209,6.236,9.556,6.958c0.38,0.077,0.777-0.065,1.012-0.379c0.234-0.313,0.265-0.734,0.077-1.077
		c-0.029-0.054-2.861-5.367-0.08-10.662c0.796-0.705,5.1-4.461,8.35-6.303c1.77-0.031,3.492-0.195,5.15-0.51
		c3.424-0.648,5.755-0.494,7.127,0.471c0.844,0.594,1.353,1.517,1.558,2.819c0.069,0.437,0.416,0.776,0.854,0.836
		c0.046,0.006,0.091,0.009,0.135,0.009c0.389,0,0.747-0.227,0.911-0.587C56.022,30.496,58.6,24.698,56.503,19.414z M30.361,32.633
		c-0.084,0.076-0.154,0.166-0.209,0.266c-2.208,4.048-1.633,8.049-0.904,10.456c-3.161-1.782-6.788-5.732-8.141-7.398
		c-0.261-0.32-0.689-0.448-1.085-0.32c-0.393,0.128-0.667,0.483-0.689,0.896c-0.391,7.074,0.928,11.309,2.062,13.579
		C10.465,46.646,9.568,27.128,9.559,26.918c-0.016-0.396-0.265-0.747-0.635-0.892c-0.118-0.047-0.241-0.069-0.364-0.069
		c-0.261,0-0.516,0.102-0.707,0.293l-5.847,5.847c0.273-9.919,7.724-13.704,8.062-13.87c0.419-0.204,0.642-0.67,0.537-1.124
		s-0.509-0.775-0.975-0.775l-6.991,0.042C22.746-0.32,36.55,8.771,40.736,12.433c-0.006,0.002-0.011,0.004-0.017,0.006
		c-0.614,0.169-1.216,0.397-1.789,0.705c-0.299,0.161-0.496,0.464-0.522,0.803c-0.006,0.078-0.733,7.87-10.832,10.413
		c-0.474,0.119-0.792,0.564-0.753,1.051c0.04,0.487,0.427,0.875,0.914,0.915c0.005,0,0.142,0.012,0.387,0.038
		c0.735,0.076,2.446,0.277,4.505,0.669c0.01,0.002,0.019,0.003,0.029,0.005c0.638,0.121,1.27,0.222,1.899,0.31
		c0.108,0.015,0.215,0.027,0.323,0.041c0.564,0.075,1.125,0.136,1.681,0.185c0.034,0.003,0.069,0.009,0.103,0.011
		C33.549,29.776,30.525,32.486,30.361,32.633z M54.908,27.333c-0.356-0.509-0.79-0.945-1.301-1.305
		c-1.329-0.936-3.014-1.234-4.684-1.234c-1.408,0-2.807,0.213-3.969,0.434c-1.621,0.309-3.31,0.462-5.05,0.479c0,0-0.001,0-0.001,0
		c-0.003,0-0.006,0-0.009,0c-0.547,0.005-1.101-0.004-1.659-0.027c-0.016-0.001-0.032-0.001-0.048-0.002
		c-0.533-0.023-1.071-0.06-1.612-0.109c-0.041-0.004-0.082-0.006-0.123-0.01c-0.508-0.048-1.018-0.109-1.53-0.18
		c-0.071-0.01-0.14-0.016-0.211-0.027c-0.569-0.081-1.139-0.175-1.709-0.284c-0.333-0.063-0.656-0.122-0.969-0.176
		c0.407-0.194,0.794-0.396,1.162-0.605c5.526-3.143,6.83-7.927,7.124-9.596c0.349-0.152,0.729-0.273,1.13-0.371
		c0.036-0.009,0.071-0.019,0.107-0.028c0.406-0.093,0.835-0.16,1.29-0.199c3.09-0.261,6.21,0.852,6.226,0.856
		c2.773,1.138,4.646,2.885,5.565,5.192C55.639,22.649,55.356,25.394,54.908,27.333z"/>
	<path d="M32.169,20.534c0.004-0.002,0.009-0.003,0.013-0.005c0.014-0.008,0.026-0.019,0.041-0.027
		c0.193-0.114,0.379-0.24,0.558-0.375c0.027-0.021,0.055-0.04,0.083-0.062c0.387-0.303,0.733-0.653,1.034-1.041
		c0.017-0.022,0.033-0.044,0.049-0.066c0.139-0.185,0.268-0.378,0.386-0.578c0.006-0.01,0.012-0.02,0.018-0.03
		c0.243-0.422,0.434-0.877,0.568-1.357c0.011-0.04,0.021-0.08,0.031-0.121c0.049-0.19,0.088-0.383,0.117-0.579
		c0.008-0.055,0.018-0.11,0.025-0.166c0.029-0.236,0.048-0.476,0.048-0.72c0-0.244-0.02-0.483-0.048-0.72
		c-0.007-0.056-0.017-0.11-0.025-0.166c-0.03-0.196-0.069-0.389-0.117-0.579c-0.01-0.041-0.02-0.082-0.031-0.122
		c-0.134-0.479-0.325-0.934-0.568-1.356c-0.006-0.01-0.012-0.019-0.018-0.029c-0.117-0.201-0.246-0.393-0.385-0.578
		c-0.017-0.023-0.034-0.046-0.051-0.068c-0.299-0.386-0.643-0.733-1.027-1.035c-0.033-0.026-0.067-0.05-0.101-0.076
		c-0.167-0.126-0.341-0.243-0.522-0.351c-0.022-0.013-0.042-0.03-0.064-0.043c-0.007-0.004-0.014-0.005-0.021-0.009
		c-0.868-0.499-1.87-0.789-2.941-0.789c-3.265,0-5.92,2.655-5.92,5.92s2.655,5.92,5.92,5.92
		C30.295,21.327,31.3,21.035,32.169,20.534z M30.221,15.407c0-1.181,0.544-2.297,1.449-3.035c0.038,0.031,0.077,0.061,0.114,0.094
		c0.145,0.126,0.279,0.262,0.402,0.407c0.056,0.065,0.112,0.129,0.163,0.197c0.12,0.16,0.223,0.331,0.317,0.507
		c0.035,0.066,0.076,0.129,0.107,0.198c0.091,0.197,0.158,0.403,0.216,0.613c0.016,0.06,0.042,0.116,0.055,0.177
		c0.061,0.274,0.096,0.556,0.096,0.842c0,0.286-0.035,0.568-0.096,0.842c-0.014,0.062-0.039,0.119-0.056,0.18
		c-0.057,0.208-0.124,0.414-0.214,0.609c-0.032,0.07-0.073,0.134-0.109,0.201c-0.094,0.175-0.196,0.345-0.315,0.504
		c-0.052,0.069-0.108,0.133-0.164,0.198c-0.124,0.145-0.257,0.28-0.401,0.406c-0.037,0.032-0.076,0.063-0.114,0.094
		C30.766,17.704,30.221,16.59,30.221,15.407z M25.301,15.407c0-2.161,1.759-3.92,3.92-3.92c0.16,0,0.312,0.029,0.467,0.047
		c-0.924,1.064-1.467,2.431-1.467,3.873s0.543,2.81,1.467,3.873c-0.155,0.019-0.307,0.047-0.467,0.047
		C27.06,19.327,25.301,17.568,25.301,15.407z"/>
	<path d="M44.434,15.62l-2,2c-0.391,0.391-0.391,1.023,0,1.414c0.195,0.195,0.451,0.293,0.707,0.293s0.512-0.098,0.707-0.293l2-2
		c0.391-0.391,0.391-1.023,0-1.414S44.825,15.229,44.434,15.62z"/>
</g>
<g>
</g>
<g>
</g>
<g>
</g>
<g>
</g>
<g>
</g>
<g>
</g>
<g>
</g>
<g>
</g>
<g>
</g>
<g>
</g>
<g>
</g>
<g>
</g>
<g>
</g>
<g>
</g>
<g>
</g>
</svg>
