<?xml version="1.0" encoding="iso-8859-1"?>
<!-- Generator: Adobe Illustrator 18.0.0, SVG Export Plug-In . SVG Version: 6.00 Build 0)  -->
<!DOCTYPE svg PUBLIC "-//W3C//DTD SVG 1.1//EN" "http://www.w3.org/Graphics/SVG/1.1/DTD/svg11.dtd">
<svg version="1.1" id="Capa_1" xmlns="http://www.w3.org/2000/svg" xmlns:xlink="http://www.w3.org/1999/xlink" x="0px" y="0px"
	 viewBox="0 0 57.321 57.321" style="enable-background:new 0 0 57.321 57.321;" xml:space="preserve">
<g>
	<path d="M56.502,19.439c-1.126-2.837-3.37-4.962-6.703-6.328c-0.115-0.042-2.854-1.038-5.975-1.038
		c-0.195,0-0.375,0.021-0.564,0.028c-1.381-1.429-7.741-7.371-18.021-7.371c-7.749,0-15.782,3.406-23.877,10.125
		c-0.647,0.537-0.88,1.397-0.594,2.19c0.286,0.794,1.015,1.307,1.855,1.307h3.842c-2.925,2.5-7.066,7.613-6.393,16.198
		c0.03,0.39,0.285,0.725,0.651,0.86c0.363,0.133,0.776,0.045,1.053-0.231l5.954-5.954c0.624,6.007,3.439,22.119,15.709,23.362
		c0.033,0.003,0.066,0.005,0.1,0.005c0.383,0,0.734-0.224,0.901-0.576c0.181-0.383,0.098-0.842-0.203-1.141
		c-0.031-0.031-2.937-3.032-2.975-11.685c2.223,2.399,6.209,6.236,9.556,6.958c0.38,0.077,0.776-0.065,1.012-0.379
		c0.234-0.313,0.265-0.734,0.077-1.077c-0.029-0.054-2.861-5.367-0.08-10.662c0.796-0.705,5.1-4.46,8.347-6.302
		c1.767-0.031,3.499-0.198,5.153-0.512c1.403-0.267,2.584-0.396,3.611-0.396c3.107,0,4.672,1.137,5.072,3.686
		c0.069,0.437,0.416,0.776,0.854,0.836c0.046,0.006,0.091,0.009,0.135,0.009c0.389,0,0.747-0.227,0.911-0.587
		C56.021,30.521,58.6,24.723,56.502,19.439z M23.301,15.432c0-3.265,2.655-5.92,5.92-5.92c1.071,0,2.073,0.29,2.941,0.789
		c0.007,0.004,0.014,0.005,0.021,0.009c0.022,0.013,0.042,0.03,0.064,0.043c0.18,0.108,0.354,0.225,0.522,0.351
		c0.034,0.025,0.068,0.05,0.101,0.076c0.384,0.302,0.728,0.649,1.027,1.035c0.018,0.023,0.034,0.046,0.051,0.068
		c0.139,0.185,0.268,0.377,0.385,0.578c0.006,0.01,0.012,0.019,0.018,0.029c0.243,0.422,0.434,0.877,0.568,1.356
		c0.011,0.04,0.021,0.081,0.031,0.122c0.048,0.19,0.087,0.382,0.117,0.579c0.009,0.055,0.019,0.11,0.025,0.166
		c0.029,0.236,0.048,0.476,0.048,0.72c0,0.244-0.02,0.483-0.048,0.72c-0.007,0.056-0.017,0.11-0.025,0.166
		c-0.03,0.197-0.069,0.39-0.117,0.579c-0.01,0.04-0.02,0.081-0.031,0.121c-0.134,0.479-0.325,0.934-0.568,1.357
		c-0.006,0.01-0.012,0.02-0.018,0.03c-0.117,0.201-0.247,0.393-0.386,0.578c-0.016,0.022-0.032,0.044-0.049,0.066
		c-0.301,0.388-0.648,0.738-1.034,1.041c-0.027,0.021-0.055,0.041-0.083,0.062c-0.179,0.135-0.365,0.26-0.558,0.375
		c-0.014,0.008-0.026,0.019-0.041,0.027c-0.004,0.002-0.009,0.003-0.013,0.005c-0.869,0.502-1.874,0.793-2.948,0.793
		C25.957,21.352,23.301,18.696,23.301,15.432z M54.905,27.367c-1.002-1.431-2.799-2.546-5.966-2.546
		c-1.153,0-2.457,0.141-3.984,0.431c-1.704,0.324-3.49,0.479-5.333,0.479l-0.02,0c-1.072,0-2.161-0.054-3.26-0.16
		c-0.004,0-0.007,0-0.011-0.001c-0.512-0.05-1.026-0.113-1.541-0.186c-0.045-0.006-0.089-0.01-0.133-0.017
		c-0.55-0.079-1.102-0.171-1.654-0.276c-0.229-0.044-0.447-0.082-0.666-0.121c-0.1-0.018-0.205-0.038-0.302-0.055
		c0.814-0.387,1.548-0.809,2.212-1.254c4.645-3.118,5.8-7.389,6.074-8.947c0.334-0.146,0.7-0.259,1.082-0.355
		c0.075-0.019,0.152-0.037,0.229-0.055c0.394-0.087,0.806-0.156,1.246-0.192c0.003,0,0.005-0.002,0.008-0.002
		c0.303-0.025,0.614-0.039,0.937-0.039c2.745,0,5.247,0.902,5.25,0.901c0,0,0,0-0.001,0c2.773,1.138,4.646,2.885,5.565,5.192
		C55.641,22.679,55.354,25.427,54.905,27.367z"/>
	<path d="M44.435,15.645l-2,2c-0.391,0.391-0.391,1.023,0,1.414c0.195,0.195,0.451,0.293,0.707,0.293s0.512-0.098,0.707-0.293l2-2
		c0.391-0.391,0.391-1.023,0-1.414C45.458,15.254,44.825,15.254,44.435,15.645z"/>
	<path d="M29.688,19.304c-0.924-1.063-1.467-2.431-1.467-3.873s0.543-2.809,1.467-3.873c-0.155-0.019-0.307-0.047-0.467-0.047
		c-2.161,0-3.92,1.759-3.92,3.92s1.759,3.92,3.92,3.92C29.381,19.352,29.533,19.323,29.688,19.304z"/>
	<path d="M31.785,18.373c0.144-0.126,0.278-0.262,0.401-0.406c0.056-0.065,0.112-0.13,0.164-0.198
		c0.119-0.159,0.222-0.329,0.315-0.504c0.036-0.067,0.077-0.131,0.109-0.201c0.09-0.195,0.157-0.401,0.214-0.609
		c0.017-0.061,0.042-0.118,0.056-0.18c0.061-0.274,0.096-0.556,0.096-0.842c0-0.286-0.035-0.568-0.096-0.842
		c-0.013-0.061-0.039-0.117-0.055-0.177c-0.058-0.21-0.125-0.416-0.216-0.613c-0.031-0.068-0.072-0.131-0.107-0.198
		c-0.094-0.176-0.198-0.347-0.317-0.507c-0.051-0.068-0.107-0.133-0.163-0.197c-0.124-0.145-0.258-0.281-0.402-0.407
		c-0.037-0.032-0.075-0.063-0.114-0.094c-0.905,0.738-1.449,1.854-1.449,3.035c0,1.182,0.544,2.297,1.449,3.035
		C31.709,18.436,31.747,18.405,31.785,18.373z"/>
</g>
<g>
</g>
<g>
</g>
<g>
</g>
<g>
</g>
<g>
</g>
<g>
</g>
<g>
</g>
<g>
</g>
<g>
</g>
<g>
</g>
<g>
</g>
<g>
</g>
<g>
</g>
<g>
</g>
<g>
</g>
</svg>
